<svg width="221" height="188" viewBox="0 0 221 188" fill="none" xmlns="http://www.w3.org/2000/svg">
<path d="M19.5467 98.2199L6.55133 90.8538C5.96856 90.5233 5.33226 90.3662 4.70455 90.3662C3.42558 90.3662 2.18185 91.0181 1.4964 92.1836C0.47453 93.9214 1.08093 96.1433 2.85084 97.1465L15.8463 104.513C16.429 104.843 17.0653 105 17.693 105C18.972 105 20.2157 104.348 20.9012 103.183C21.9231 101.445 21.3166 99.2231 19.5467 98.2199Z" fill="#676C72"/>
<path d="M45.4622 90.8537L32.4668 83.4874C31.8841 83.1571 31.2477 83 30.62 83C29.3411 83 28.0975 83.6515 27.4119 84.8171C26.39 86.5548 26.9965 88.7766 28.7664 89.78L41.7617 97.1464C42.3444 97.4766 42.9808 97.6338 43.6084 97.6338C44.8875 97.6338 46.1311 96.9823 46.8166 95.8166C47.8385 94.079 47.232 91.8571 45.4622 90.8537Z" fill="#676C72"/>
<path d="M41.2471 98.0215L35.1819 94.5834L28.7664 98.2199C26.9965 99.223 26.39 101.445 27.4119 103.183C28.0973 104.348 29.3412 105 30.6201 105C31.2479 105 31.884 104.843 32.4668 104.513L42.913 98.5913C42.3293 98.5054 41.763 98.3138 41.2471 98.0215Z" fill="#676C72"/>
<path d="M7.06596 89.9787L13.1312 93.4167L19.5468 89.7801C21.3167 88.7769 21.9231 86.5548 20.9013 84.8172C19.8793 83.0796 17.6164 82.484 15.8463 83.4874L5.40027 89.4087C5.98408 89.4947 6.55043 89.6863 7.06596 89.9787Z" fill="#676C72"/>
<path d="M63.488 101.288C62.276 101.288 61.16 100.994 60.14 100.406C59.12 99.818 58.31 99.008 57.71 97.976C57.11 96.944 56.81 95.804 56.81 94.556C56.81 93.308 57.11 92.168 57.71 91.136C58.31 90.104 59.12 89.294 60.14 88.706C61.16 88.118 62.276 87.824 63.488 87.824C64.436 87.824 65.324 87.992 66.152 88.328C66.992 88.664 67.682 89.138 68.222 89.75L67.124 90.848C66.716 90.344 66.194 89.96 65.558 89.696C64.922 89.42 64.238 89.282 63.506 89.282C62.594 89.282 61.742 89.504 60.95 89.948C60.17 90.38 59.54 90.998 59.06 91.802C58.592 92.594 58.358 93.512 58.358 94.556C58.358 95.6 58.592 96.524 59.06 97.328C59.54 98.12 60.176 98.738 60.968 99.182C61.76 99.614 62.606 99.83 63.506 99.83C64.37 99.83 65.09 99.698 65.666 99.434C66.254 99.158 66.758 98.798 67.178 98.354C67.49 98.018 67.742 97.616 67.934 97.148C68.126 96.668 68.246 96.14 68.294 95.564H63.524V94.142H69.716C69.776 94.478 69.806 94.79 69.806 95.078C69.806 95.87 69.68 96.644 69.428 97.4C69.176 98.144 68.774 98.798 68.222 99.362C67.034 100.646 65.456 101.288 63.488 101.288ZM72.0826 88.112H75.9706C77.2906 88.112 78.4426 88.388 79.4266 88.94C80.4106 89.48 81.1666 90.236 81.6946 91.208C82.2226 92.18 82.4866 93.296 82.4866 94.556C82.4866 95.816 82.2226 96.932 81.6946 97.904C81.1666 98.876 80.4106 99.638 79.4266 100.19C78.4426 100.73 77.2906 101 75.9706 101H72.0826V88.112ZM75.9706 99.542C77.4946 99.542 78.7006 99.104 79.5886 98.228C80.4886 97.352 80.9386 96.128 80.9386 94.556C80.9386 92.984 80.4886 91.76 79.5886 90.884C78.7006 90.008 77.4946 89.57 75.9706 89.57H73.5946V99.542H75.9706ZM90.7868 101.288C89.5748 101.288 88.4588 100.994 87.4388 100.406C86.4188 99.818 85.6088 99.008 85.0088 97.976C84.4088 96.944 84.1088 95.804 84.1088 94.556C84.1088 93.308 84.4088 92.168 85.0088 91.136C85.6088 90.104 86.4188 89.294 87.4388 88.706C88.4588 88.118 89.5748 87.824 90.7868 87.824C91.7348 87.824 92.6228 87.992 93.4508 88.328C94.2908 88.664 94.9808 89.138 95.5208 89.75L94.4228 90.848C94.0148 90.344 93.4928 89.96 92.8568 89.696C92.2208 89.42 91.5368 89.282 90.8048 89.282C89.8928 89.282 89.0408 89.504 88.2488 89.948C87.4688 90.38 86.8388 90.998 86.3588 91.802C85.8908 92.594 85.6568 93.512 85.6568 94.556C85.6568 95.6 85.8908 96.524 86.3588 97.328C86.8388 98.12 87.4748 98.738 88.2668 99.182C89.0588 99.614 89.9048 99.83 90.8048 99.83C91.6688 99.83 92.3888 99.698 92.9648 99.434C93.5528 99.158 94.0568 98.798 94.4768 98.354C94.7888 98.018 95.0408 97.616 95.2328 97.148C95.4248 96.668 95.5448 96.14 95.5928 95.564H90.8228V94.142H97.0148C97.0748 94.478 97.1048 94.79 97.1048 95.078C97.1048 95.87 96.9788 96.644 96.7268 97.4C96.4748 98.144 96.0728 98.798 95.5208 99.362C94.3328 100.646 92.7548 101.288 90.7868 101.288ZM101.656 88.112H103.348L106.534 97.454L106.966 98.732H107.038L107.488 97.454L110.818 88.112H112.51L107.794 101H106.21L101.656 88.112ZM117.034 101.288C116.134 101.288 115.324 101.072 114.604 100.64C113.884 100.208 113.32 99.62 112.912 98.876C112.516 98.132 112.318 97.31 112.318 96.41C112.318 95.51 112.516 94.688 112.912 93.944C113.32 93.2 113.884 92.612 114.604 92.18C115.324 91.748 116.134 91.532 117.034 91.532C117.934 91.532 118.744 91.748 119.464 92.18C120.184 92.612 120.742 93.2 121.138 93.944C121.546 94.688 121.75 95.51 121.75 96.41C121.75 97.31 121.546 98.132 121.138 98.876C120.742 99.62 120.184 100.208 119.464 100.64C118.744 101.072 117.934 101.288 117.034 101.288ZM117.034 99.902C117.598 99.902 118.12 99.764 118.6 99.488C119.092 99.2 119.482 98.792 119.77 98.264C120.07 97.736 120.22 97.118 120.22 96.41C120.22 95.702 120.07 95.084 119.77 94.556C119.482 94.028 119.092 93.626 118.6 93.35C118.12 93.062 117.598 92.918 117.034 92.918C116.47 92.918 115.942 93.062 115.45 93.35C114.958 93.626 114.562 94.028 114.262 94.556C113.974 95.084 113.83 95.702 113.83 96.41C113.83 97.118 113.974 97.736 114.262 98.264C114.562 98.792 114.958 99.2 115.45 99.488C115.942 99.764 116.47 99.902 117.034 99.902ZM123.351 91.82H124.809V93.296H124.881C125.061 92.792 125.409 92.378 125.925 92.054C126.441 91.718 126.981 91.55 127.545 91.55C127.965 91.55 128.325 91.61 128.625 91.73V93.386C128.241 93.194 127.809 93.098 127.329 93.098C126.885 93.098 126.477 93.224 126.105 93.476C125.733 93.728 125.433 94.07 125.205 94.502C124.989 94.922 124.881 95.378 124.881 95.87V101H123.351V91.82ZM133.786 101.288C132.886 101.288 132.076 101.072 131.356 100.64C130.636 100.208 130.072 99.62 129.664 98.876C129.268 98.132 129.07 97.31 129.07 96.41C129.07 95.51 129.268 94.688 129.664 93.944C130.072 93.2 130.636 92.612 131.356 92.18C132.076 91.748 132.886 91.532 133.786 91.532C134.686 91.532 135.496 91.748 136.216 92.18C136.936 92.612 137.494 93.2 137.89 93.944C138.298 94.688 138.502 95.51 138.502 96.41C138.502 97.31 138.298 98.132 137.89 98.876C137.494 99.62 136.936 100.208 136.216 100.64C135.496 101.072 134.686 101.288 133.786 101.288ZM133.786 99.902C134.35 99.902 134.872 99.764 135.352 99.488C135.844 99.2 136.234 98.792 136.522 98.264C136.822 97.736 136.972 97.118 136.972 96.41C136.972 95.702 136.822 95.084 136.522 94.556C136.234 94.028 135.844 93.626 135.352 93.35C134.872 93.062 134.35 92.918 133.786 92.918C133.222 92.918 132.694 93.062 132.202 93.35C131.71 93.626 131.314 94.028 131.014 94.556C130.726 95.084 130.582 95.702 130.582 96.41C130.582 97.118 130.726 97.736 131.014 98.264C131.314 98.792 131.71 99.2 132.202 99.488C132.694 99.764 133.222 99.902 133.786 99.902ZM140.103 91.82H141.561V93.17H141.633C141.885 92.714 142.287 92.33 142.839 92.018C143.391 91.694 143.979 91.532 144.603 91.532C145.707 91.532 146.547 91.856 147.123 92.504C147.711 93.14 148.005 94.01 148.005 95.114V101H146.475V95.348C146.475 94.496 146.271 93.878 145.863 93.494C145.455 93.11 144.897 92.918 144.189 92.918C143.697 92.918 143.253 93.056 142.857 93.332C142.473 93.608 142.173 93.974 141.957 94.43C141.741 94.874 141.633 95.342 141.633 95.834V101H140.103V91.82ZM154.279 101.288C153.403 101.288 152.617 101.078 151.921 100.658C151.225 100.238 150.679 99.662 150.283 98.93C149.899 98.186 149.707 97.352 149.707 96.428C149.707 95.54 149.887 94.724 150.247 93.98C150.619 93.236 151.141 92.642 151.813 92.198C152.485 91.754 153.265 91.532 154.153 91.532C155.053 91.532 155.833 91.736 156.493 92.144C157.153 92.54 157.657 93.092 158.005 93.8C158.365 94.508 158.545 95.318 158.545 96.23C158.545 96.41 158.527 96.566 158.491 96.698H151.237C151.273 97.394 151.441 97.982 151.741 98.462C152.041 98.942 152.419 99.302 152.875 99.542C153.343 99.782 153.829 99.902 154.333 99.902C155.509 99.902 156.415 99.35 157.051 98.246L158.347 98.876C157.951 99.62 157.411 100.208 156.727 100.64C156.055 101.072 155.239 101.288 154.279 101.288ZM156.925 95.438C156.901 95.054 156.793 94.67 156.601 94.286C156.409 93.902 156.103 93.578 155.683 93.314C155.275 93.05 154.759 92.918 154.135 92.918C153.415 92.918 152.803 93.152 152.299 93.62C151.807 94.076 151.483 94.682 151.327 95.438H156.925ZM159.779 99.686L165.197 93.206H159.941V91.82H167.069V93.134L161.633 99.614H167.213V101H159.779V99.686ZM169.195 88.112H170.725V91.91L170.653 93.17H170.725C170.977 92.702 171.373 92.312 171.913 92C172.465 91.688 173.065 91.532 173.713 91.532C174.829 91.532 175.681 91.862 176.269 92.522C176.857 93.17 177.151 94.034 177.151 95.114V101H175.621V95.348C175.621 94.52 175.411 93.908 174.991 93.512C174.571 93.116 174.025 92.918 173.353 92.918C172.873 92.918 172.429 93.062 172.021 93.35C171.625 93.638 171.307 94.01 171.067 94.466C170.839 94.922 170.725 95.396 170.725 95.888V101H169.195V88.112ZM183.214 99.47C183.586 99.098 184.324 98.354 185.428 97.238C186.532 96.11 187.3 95.312 187.732 94.844C188.344 94.184 188.758 93.668 188.974 93.296C189.19 92.924 189.298 92.474 189.298 91.946C189.298 91.586 189.202 91.25 189.01 90.938C188.83 90.614 188.56 90.356 188.2 90.164C187.852 89.96 187.432 89.858 186.94 89.858C186.292 89.858 185.77 90.05 185.374 90.434C184.99 90.806 184.738 91.214 184.618 91.658L183.214 91.1C183.334 90.716 183.55 90.32 183.862 89.912C184.174 89.492 184.594 89.138 185.122 88.85C185.65 88.55 186.274 88.4 186.994 88.4C187.75 88.4 188.416 88.562 188.992 88.886C189.58 89.21 190.036 89.642 190.36 90.182C190.684 90.722 190.846 91.304 190.846 91.928C190.846 93.188 190.186 94.49 188.866 95.834L185.176 99.542H190.99V101H183.214V99.47ZM197.657 101.288C196.685 101.288 195.821 101.006 195.065 100.442C194.321 99.866 193.745 99.092 193.337 98.12C192.941 97.136 192.743 96.044 192.743 94.844C192.743 93.644 192.941 92.558 193.337 91.586C193.745 90.602 194.321 89.828 195.065 89.264C195.809 88.688 196.673 88.4 197.657 88.4C198.641 88.4 199.505 88.688 200.249 89.264C200.993 89.828 201.563 90.602 201.959 91.586C202.367 92.558 202.571 93.644 202.571 94.844C202.571 96.044 202.367 97.136 201.959 98.12C201.563 99.092 200.987 99.866 200.231 100.442C199.487 101.006 198.629 101.288 197.657 101.288ZM197.657 99.83C198.341 99.83 198.935 99.614 199.439 99.182C199.943 98.738 200.333 98.138 200.609 97.382C200.885 96.626 201.023 95.78 201.023 94.844C201.023 93.908 200.885 93.062 200.609 92.306C200.333 91.55 199.943 90.956 199.439 90.524C198.935 90.08 198.341 89.858 197.657 89.858C196.973 89.858 196.379 90.08 195.875 90.524C195.371 90.956 194.981 91.55 194.705 92.306C194.429 93.062 194.291 93.908 194.291 94.844C194.291 95.78 194.429 96.626 194.705 97.382C194.981 98.138 195.371 98.738 195.875 99.182C196.379 99.614 196.973 99.83 197.657 99.83ZM207.049 90.83L204.889 92.378L204.097 91.208L207.607 88.688H208.579V101H207.049V90.83ZM213.329 100.442L216.425 96.104L216.389 96.068C215.969 96.356 215.435 96.5 214.787 96.5C214.163 96.5 213.551 96.326 212.951 95.978C212.351 95.63 211.865 95.156 211.493 94.556C211.121 93.944 210.935 93.266 210.935 92.522C210.935 91.802 211.121 91.13 211.493 90.506C211.877 89.87 212.387 89.36 213.023 88.976C213.671 88.592 214.373 88.4 215.129 88.4C215.945 88.4 216.671 88.598 217.307 88.994C217.955 89.39 218.453 89.906 218.801 90.542C219.161 91.166 219.341 91.826 219.341 92.522C219.341 93.182 219.203 93.818 218.927 94.43C218.663 95.03 218.279 95.702 217.775 96.446L214.553 101.288L213.329 100.442ZM215.129 95.132C215.609 95.132 216.053 95.018 216.461 94.79C216.881 94.55 217.211 94.232 217.451 93.836C217.691 93.428 217.811 92.984 217.811 92.504C217.811 92.012 217.691 91.568 217.451 91.172C217.211 90.764 216.881 90.446 216.461 90.218C216.053 89.978 215.609 89.858 215.129 89.858C214.649 89.858 214.205 89.978 213.797 90.218C213.389 90.446 213.065 90.764 212.825 91.172C212.585 91.568 212.465 92.012 212.465 92.504C212.465 92.984 212.585 93.428 212.825 93.836C213.065 94.232 213.389 94.55 213.797 94.79C214.205 95.018 214.649 95.132 215.129 95.132Z" fill="#676C72"/>
<path d="M63.488 163.288C62.276 163.288 61.16 162.994 60.14 162.406C59.12 161.818 58.31 161.008 57.71 159.976C57.11 158.944 56.81 157.804 56.81 156.556C56.81 155.308 57.11 154.168 57.71 153.136C58.31 152.104 59.12 151.294 60.14 150.706C61.16 150.118 62.276 149.824 63.488 149.824C64.436 149.824 65.324 149.992 66.152 150.328C66.992 150.664 67.682 151.138 68.222 151.75L67.124 152.848C66.716 152.344 66.194 151.96 65.558 151.696C64.922 151.42 64.238 151.282 63.506 151.282C62.594 151.282 61.742 151.504 60.95 151.948C60.17 152.38 59.54 152.998 59.06 153.802C58.592 154.594 58.358 155.512 58.358 156.556C58.358 157.6 58.592 158.524 59.06 159.328C59.54 160.12 60.176 160.738 60.968 161.182C61.76 161.614 62.606 161.83 63.506 161.83C64.37 161.83 65.09 161.698 65.666 161.434C66.254 161.158 66.758 160.798 67.178 160.354C67.49 160.018 67.742 159.616 67.934 159.148C68.126 158.668 68.246 158.14 68.294 157.564H63.524V156.142H69.716C69.776 156.478 69.806 156.79 69.806 157.078C69.806 157.87 69.68 158.644 69.428 159.4C69.176 160.144 68.774 160.798 68.222 161.362C67.034 162.646 65.456 163.288 63.488 163.288ZM72.0826 150.112H75.9706C77.2906 150.112 78.4426 150.388 79.4266 150.94C80.4106 151.48 81.1666 152.236 81.6946 153.208C82.2226 154.18 82.4866 155.296 82.4866 156.556C82.4866 157.816 82.2226 158.932 81.6946 159.904C81.1666 160.876 80.4106 161.638 79.4266 162.19C78.4426 162.73 77.2906 163 75.9706 163H72.0826V150.112ZM75.9706 161.542C77.4946 161.542 78.7006 161.104 79.5886 160.228C80.4886 159.352 80.9386 158.128 80.9386 156.556C80.9386 154.984 80.4886 153.76 79.5886 152.884C78.7006 152.008 77.4946 151.57 75.9706 151.57H73.5946V161.542H75.9706ZM90.7868 163.288C89.5748 163.288 88.4588 162.994 87.4388 162.406C86.4188 161.818 85.6088 161.008 85.0088 159.976C84.4088 158.944 84.1088 157.804 84.1088 156.556C84.1088 155.308 84.4088 154.168 85.0088 153.136C85.6088 152.104 86.4188 151.294 87.4388 150.706C88.4588 150.118 89.5748 149.824 90.7868 149.824C91.7348 149.824 92.6228 149.992 93.4508 150.328C94.2908 150.664 94.9808 151.138 95.5208 151.75L94.4228 152.848C94.0148 152.344 93.4928 151.96 92.8568 151.696C92.2208 151.42 91.5368 151.282 90.8048 151.282C89.8928 151.282 89.0408 151.504 88.2488 151.948C87.4688 152.38 86.8388 152.998 86.3588 153.802C85.8908 154.594 85.6568 155.512 85.6568 156.556C85.6568 157.6 85.8908 158.524 86.3588 159.328C86.8388 160.12 87.4748 160.738 88.2668 161.182C89.0588 161.614 89.9048 161.83 90.8048 161.83C91.6688 161.83 92.3888 161.698 92.9648 161.434C93.5528 161.158 94.0568 160.798 94.4768 160.354C94.7888 160.018 95.0408 159.616 95.2328 159.148C95.4248 158.668 95.5448 158.14 95.5928 157.564H90.8228V156.142H97.0148C97.0748 156.478 97.1048 156.79 97.1048 157.078C97.1048 157.87 96.9788 158.644 96.7268 159.4C96.4748 160.144 96.0728 160.798 95.5208 161.362C94.3328 162.646 92.7548 163.288 90.7868 163.288ZM101.656 150.112H103.348L106.534 159.454L106.966 160.732H107.038L107.488 159.454L110.818 150.112H112.51L107.794 163H106.21L101.656 150.112ZM117.034 163.288C116.134 163.288 115.324 163.072 114.604 162.64C113.884 162.208 113.32 161.62 112.912 160.876C112.516 160.132 112.318 159.31 112.318 158.41C112.318 157.51 112.516 156.688 112.912 155.944C113.32 155.2 113.884 154.612 114.604 154.18C115.324 153.748 116.134 153.532 117.034 153.532C117.934 153.532 118.744 153.748 119.464 154.18C120.184 154.612 120.742 155.2 121.138 155.944C121.546 156.688 121.75 157.51 121.75 158.41C121.75 159.31 121.546 160.132 121.138 160.876C120.742 161.62 120.184 162.208 119.464 162.64C118.744 163.072 117.934 163.288 117.034 163.288ZM117.034 161.902C117.598 161.902 118.12 161.764 118.6 161.488C119.092 161.2 119.482 160.792 119.77 160.264C120.07 159.736 120.22 159.118 120.22 158.41C120.22 157.702 120.07 157.084 119.77 156.556C119.482 156.028 119.092 155.626 118.6 155.35C118.12 155.062 117.598 154.918 117.034 154.918C116.47 154.918 115.942 155.062 115.45 155.35C114.958 155.626 114.562 156.028 114.262 156.556C113.974 157.084 113.83 157.702 113.83 158.41C113.83 159.118 113.974 159.736 114.262 160.264C114.562 160.792 114.958 161.2 115.45 161.488C115.942 161.764 116.47 161.902 117.034 161.902ZM123.351 153.82H124.809V155.296H124.881C125.061 154.792 125.409 154.378 125.925 154.054C126.441 153.718 126.981 153.55 127.545 153.55C127.965 153.55 128.325 153.61 128.625 153.73V155.386C128.241 155.194 127.809 155.098 127.329 155.098C126.885 155.098 126.477 155.224 126.105 155.476C125.733 155.728 125.433 156.07 125.205 156.502C124.989 156.922 124.881 157.378 124.881 157.87V163H123.351V153.82ZM133.786 163.288C132.886 163.288 132.076 163.072 131.356 162.64C130.636 162.208 130.072 161.62 129.664 160.876C129.268 160.132 129.07 159.31 129.07 158.41C129.07 157.51 129.268 156.688 129.664 155.944C130.072 155.2 130.636 154.612 131.356 154.18C132.076 153.748 132.886 153.532 133.786 153.532C134.686 153.532 135.496 153.748 136.216 154.18C136.936 154.612 137.494 155.2 137.89 155.944C138.298 156.688 138.502 157.51 138.502 158.41C138.502 159.31 138.298 160.132 137.89 160.876C137.494 161.62 136.936 162.208 136.216 162.64C135.496 163.072 134.686 163.288 133.786 163.288ZM133.786 161.902C134.35 161.902 134.872 161.764 135.352 161.488C135.844 161.2 136.234 160.792 136.522 160.264C136.822 159.736 136.972 159.118 136.972 158.41C136.972 157.702 136.822 157.084 136.522 156.556C136.234 156.028 135.844 155.626 135.352 155.35C134.872 155.062 134.35 154.918 133.786 154.918C133.222 154.918 132.694 155.062 132.202 155.35C131.71 155.626 131.314 156.028 131.014 156.556C130.726 157.084 130.582 157.702 130.582 158.41C130.582 159.118 130.726 159.736 131.014 160.264C131.314 160.792 131.71 161.2 132.202 161.488C132.694 161.764 133.222 161.902 133.786 161.902ZM140.103 153.82H141.561V155.17H141.633C141.885 154.714 142.287 154.33 142.839 154.018C143.391 153.694 143.979 153.532 144.603 153.532C145.707 153.532 146.547 153.856 147.123 154.504C147.711 155.14 148.005 156.01 148.005 157.114V163H146.475V157.348C146.475 156.496 146.271 155.878 145.863 155.494C145.455 155.11 144.897 154.918 144.189 154.918C143.697 154.918 143.253 155.056 142.857 155.332C142.473 155.608 142.173 155.974 141.957 156.43C141.741 156.874 141.633 157.342 141.633 157.834V163H140.103V153.82ZM154.279 163.288C153.403 163.288 152.617 163.078 151.921 162.658C151.225 162.238 150.679 161.662 150.283 160.93C149.899 160.186 149.707 159.352 149.707 158.428C149.707 157.54 149.887 156.724 150.247 155.98C150.619 155.236 151.141 154.642 151.813 154.198C152.485 153.754 153.265 153.532 154.153 153.532C155.053 153.532 155.833 153.736 156.493 154.144C157.153 154.54 157.657 155.092 158.005 155.8C158.365 156.508 158.545 157.318 158.545 158.23C158.545 158.41 158.527 158.566 158.491 158.698H151.237C151.273 159.394 151.441 159.982 151.741 160.462C152.041 160.942 152.419 161.302 152.875 161.542C153.343 161.782 153.829 161.902 154.333 161.902C155.509 161.902 156.415 161.35 157.051 160.246L158.347 160.876C157.951 161.62 157.411 162.208 156.727 162.64C156.055 163.072 155.239 163.288 154.279 163.288ZM156.925 157.438C156.901 157.054 156.793 156.67 156.601 156.286C156.409 155.902 156.103 155.578 155.683 155.314C155.275 155.05 154.759 154.918 154.135 154.918C153.415 154.918 152.803 155.152 152.299 155.62C151.807 156.076 151.483 156.682 151.327 157.438H156.925ZM159.779 161.686L165.197 155.206H159.941V153.82H167.069V155.134L161.633 161.614H167.213V163H159.779V161.686ZM169.195 150.112H170.725V153.91L170.653 155.17H170.725C170.977 154.702 171.373 154.312 171.913 154C172.465 153.688 173.065 153.532 173.713 153.532C174.829 153.532 175.681 153.862 176.269 154.522C176.857 155.17 177.151 156.034 177.151 157.114V163H175.621V157.348C175.621 156.52 175.411 155.908 174.991 155.512C174.571 155.116 174.025 154.918 173.353 154.918C172.873 154.918 172.429 155.062 172.021 155.35C171.625 155.638 171.307 156.01 171.067 156.466C170.839 156.922 170.725 157.396 170.725 157.888V163H169.195V150.112ZM183.214 161.47C183.586 161.098 184.324 160.354 185.428 159.238C186.532 158.11 187.3 157.312 187.732 156.844C188.344 156.184 188.758 155.668 188.974 155.296C189.19 154.924 189.298 154.474 189.298 153.946C189.298 153.586 189.202 153.25 189.01 152.938C188.83 152.614 188.56 152.356 188.2 152.164C187.852 151.96 187.432 151.858 186.94 151.858C186.292 151.858 185.77 152.05 185.374 152.434C184.99 152.806 184.738 153.214 184.618 153.658L183.214 153.1C183.334 152.716 183.55 152.32 183.862 151.912C184.174 151.492 184.594 151.138 185.122 150.85C185.65 150.55 186.274 150.4 186.994 150.4C187.75 150.4 188.416 150.562 188.992 150.886C189.58 151.21 190.036 151.642 190.36 152.182C190.684 152.722 190.846 153.304 190.846 153.928C190.846 155.188 190.186 156.49 188.866 157.834L185.176 161.542H190.99V163H183.214V161.47ZM197.657 163.288C196.685 163.288 195.821 163.006 195.065 162.442C194.321 161.866 193.745 161.092 193.337 160.12C192.941 159.136 192.743 158.044 192.743 156.844C192.743 155.644 192.941 154.558 193.337 153.586C193.745 152.602 194.321 151.828 195.065 151.264C195.809 150.688 196.673 150.4 197.657 150.4C198.641 150.4 199.505 150.688 200.249 151.264C200.993 151.828 201.563 152.602 201.959 153.586C202.367 154.558 202.571 155.644 202.571 156.844C202.571 158.044 202.367 159.136 201.959 160.12C201.563 161.092 200.987 161.866 200.231 162.442C199.487 163.006 198.629 163.288 197.657 163.288ZM197.657 161.83C198.341 161.83 198.935 161.614 199.439 161.182C199.943 160.738 200.333 160.138 200.609 159.382C200.885 158.626 201.023 157.78 201.023 156.844C201.023 155.908 200.885 155.062 200.609 154.306C200.333 153.55 199.943 152.956 199.439 152.524C198.935 152.08 198.341 151.858 197.657 151.858C196.973 151.858 196.379 152.08 195.875 152.524C195.371 152.956 194.981 153.55 194.705 154.306C194.429 155.062 194.291 155.908 194.291 156.844C194.291 157.78 194.429 158.626 194.705 159.382C194.981 160.138 195.371 160.738 195.875 161.182C196.379 161.614 196.973 161.83 197.657 161.83ZM207.049 152.83L204.889 154.378L204.097 153.208L207.607 150.688H208.579V163H207.049V152.83ZM213.329 162.442L216.425 158.104L216.389 158.068C215.969 158.356 215.435 158.5 214.787 158.5C214.163 158.5 213.551 158.326 212.951 157.978C212.351 157.63 211.865 157.156 211.493 156.556C211.121 155.944 210.935 155.266 210.935 154.522C210.935 153.802 211.121 153.13 211.493 152.506C211.877 151.87 212.387 151.36 213.023 150.976C213.671 150.592 214.373 150.4 215.129 150.4C215.945 150.4 216.671 150.598 217.307 150.994C217.955 151.39 218.453 151.906 218.801 152.542C219.161 153.166 219.341 153.826 219.341 154.522C219.341 155.182 219.203 155.818 218.927 156.43C218.663 157.03 218.279 157.702 217.775 158.446L214.553 163.288L213.329 162.442ZM215.129 157.132C215.609 157.132 216.053 157.018 216.461 156.79C216.881 156.55 217.211 156.232 217.451 155.836C217.691 155.428 217.811 154.984 217.811 154.504C217.811 154.012 217.691 153.568 217.451 153.172C217.211 152.764 216.881 152.446 216.461 152.218C216.053 151.978 215.609 151.858 215.129 151.858C214.649 151.858 214.205 151.978 213.797 152.218C213.389 152.446 213.065 152.764 212.825 153.172C212.585 153.568 212.465 154.012 212.465 154.504C212.465 154.984 212.585 155.428 212.825 155.836C213.065 156.232 213.389 156.55 213.797 156.79C214.205 157.018 214.649 157.132 215.129 157.132Z" fill="#E6E6E5"/>
<path d="M11.9514 156.226L19.4213 151.892C21.1793 150.873 21.7816 148.614 20.7667 146.847C19.7516 145.081 17.504 144.475 15.7459 145.495L2.83826 152.984L11.9514 156.226Z" fill="#EA4335"/>
<path d="M17.5802 167.364C18.8506 167.364 20.0858 166.702 20.7667 165.517C21.7817 163.751 21.1794 161.492 19.4214 160.472L6.5138 152.984C4.75572 151.963 2.50803 152.569 1.49307 154.336C0.478059 156.102 1.0804 158.361 2.83835 159.381L15.746 166.869C16.3247 167.205 16.9567 167.364 17.5802 167.364Z" fill="#4285F4"/>
<path d="M30.4197 167.364C31.0433 167.364 31.6751 167.205 32.254 166.869L45.1615 159.381L36.1641 156.071L28.5785 160.472C26.8205 161.492 26.2182 163.751 27.2332 165.517C27.914 166.702 29.1494 167.364 30.4197 167.364Z" fill="#FBBC04"/>
<path d="M43.3206 159.876C44.5909 159.876 45.8262 159.214 46.5071 158.029C47.522 156.263 46.9197 154.004 45.1617 152.984L32.2543 145.495C30.4963 144.476 28.2486 145.081 27.2335 146.847C26.2186 148.614 26.8209 150.872 28.5789 151.892L41.4863 159.381C42.0651 159.716 42.6971 159.876 43.3206 159.876Z" fill="#0F9D58"/>
<path d="M63.488 38.288C62.276 38.288 61.16 37.994 60.14 37.406C59.12 36.818 58.31 36.008 57.71 34.976C57.11 33.944 56.81 32.804 56.81 31.556C56.81 30.308 57.11 29.168 57.71 28.136C58.31 27.104 59.12 26.294 60.14 25.706C61.16 25.118 62.276 24.824 63.488 24.824C64.436 24.824 65.324 24.992 66.152 25.328C66.992 25.664 67.682 26.138 68.222 26.75L67.124 27.848C66.716 27.344 66.194 26.96 65.558 26.696C64.922 26.42 64.238 26.282 63.506 26.282C62.594 26.282 61.742 26.504 60.95 26.948C60.17 27.38 59.54 27.998 59.06 28.802C58.592 29.594 58.358 30.512 58.358 31.556C58.358 32.6 58.592 33.524 59.06 34.328C59.54 35.12 60.176 35.738 60.968 36.182C61.76 36.614 62.606 36.83 63.506 36.83C64.37 36.83 65.09 36.698 65.666 36.434C66.254 36.158 66.758 35.798 67.178 35.354C67.49 35.018 67.742 34.616 67.934 34.148C68.126 33.668 68.246 33.14 68.294 32.564H63.524V31.142H69.716C69.776 31.478 69.806 31.79 69.806 32.078C69.806 32.87 69.68 33.644 69.428 34.4C69.176 35.144 68.774 35.798 68.222 36.362C67.034 37.646 65.456 38.288 63.488 38.288ZM72.0826 25.112H75.9706C77.2906 25.112 78.4426 25.388 79.4266 25.94C80.4106 26.48 81.1666 27.236 81.6946 28.208C82.2226 29.18 82.4866 30.296 82.4866 31.556C82.4866 32.816 82.2226 33.932 81.6946 34.904C81.1666 35.876 80.4106 36.638 79.4266 37.19C78.4426 37.73 77.2906 38 75.9706 38H72.0826V25.112ZM75.9706 36.542C77.4946 36.542 78.7006 36.104 79.5886 35.228C80.4886 34.352 80.9386 33.128 80.9386 31.556C80.9386 29.984 80.4886 28.76 79.5886 27.884C78.7006 27.008 77.4946 26.57 75.9706 26.57H73.5946V36.542H75.9706ZM90.7868 38.288C89.5748 38.288 88.4588 37.994 87.4388 37.406C86.4188 36.818 85.6088 36.008 85.0088 34.976C84.4088 33.944 84.1088 32.804 84.1088 31.556C84.1088 30.308 84.4088 29.168 85.0088 28.136C85.6088 27.104 86.4188 26.294 87.4388 25.706C88.4588 25.118 89.5748 24.824 90.7868 24.824C91.7348 24.824 92.6228 24.992 93.4508 25.328C94.2908 25.664 94.9808 26.138 95.5208 26.75L94.4228 27.848C94.0148 27.344 93.4928 26.96 92.8568 26.696C92.2208 26.42 91.5368 26.282 90.8048 26.282C89.8928 26.282 89.0408 26.504 88.2488 26.948C87.4688 27.38 86.8388 27.998 86.3588 28.802C85.8908 29.594 85.6568 30.512 85.6568 31.556C85.6568 32.6 85.8908 33.524 86.3588 34.328C86.8388 35.12 87.4748 35.738 88.2668 36.182C89.0588 36.614 89.9048 36.83 90.8048 36.83C91.6688 36.83 92.3888 36.698 92.9648 36.434C93.5528 36.158 94.0568 35.798 94.4768 35.354C94.7888 35.018 95.0408 34.616 95.2328 34.148C95.4248 33.668 95.5448 33.14 95.5928 32.564H90.8228V31.142H97.0148C97.0748 31.478 97.1048 31.79 97.1048 32.078C97.1048 32.87 96.9788 33.644 96.7268 34.4C96.4748 35.144 96.0728 35.798 95.5208 36.362C94.3328 37.646 92.7548 38.288 90.7868 38.288ZM101.656 25.112H103.348L106.534 34.454L106.966 35.732H107.038L107.488 34.454L110.818 25.112H112.51L107.794 38H106.21L101.656 25.112ZM117.034 38.288C116.134 38.288 115.324 38.072 114.604 37.64C113.884 37.208 113.32 36.62 112.912 35.876C112.516 35.132 112.318 34.31 112.318 33.41C112.318 32.51 112.516 31.688 112.912 30.944C113.32 30.2 113.884 29.612 114.604 29.18C115.324 28.748 116.134 28.532 117.034 28.532C117.934 28.532 118.744 28.748 119.464 29.18C120.184 29.612 120.742 30.2 121.138 30.944C121.546 31.688 121.75 32.51 121.75 33.41C121.75 34.31 121.546 35.132 121.138 35.876C120.742 36.62 120.184 37.208 119.464 37.64C118.744 38.072 117.934 38.288 117.034 38.288ZM117.034 36.902C117.598 36.902 118.12 36.764 118.6 36.488C119.092 36.2 119.482 35.792 119.77 35.264C120.07 34.736 120.22 34.118 120.22 33.41C120.22 32.702 120.07 32.084 119.77 31.556C119.482 31.028 119.092 30.626 118.6 30.35C118.12 30.062 117.598 29.918 117.034 29.918C116.47 29.918 115.942 30.062 115.45 30.35C114.958 30.626 114.562 31.028 114.262 31.556C113.974 32.084 113.83 32.702 113.83 33.41C113.83 34.118 113.974 34.736 114.262 35.264C114.562 35.792 114.958 36.2 115.45 36.488C115.942 36.764 116.47 36.902 117.034 36.902ZM123.351 28.82H124.809V30.296H124.881C125.061 29.792 125.409 29.378 125.925 29.054C126.441 28.718 126.981 28.55 127.545 28.55C127.965 28.55 128.325 28.61 128.625 28.73V30.386C128.241 30.194 127.809 30.098 127.329 30.098C126.885 30.098 126.477 30.224 126.105 30.476C125.733 30.728 125.433 31.07 125.205 31.502C124.989 31.922 124.881 32.378 124.881 32.87V38H123.351V28.82ZM133.786 38.288C132.886 38.288 132.076 38.072 131.356 37.64C130.636 37.208 130.072 36.62 129.664 35.876C129.268 35.132 129.07 34.31 129.07 33.41C129.07 32.51 129.268 31.688 129.664 30.944C130.072 30.2 130.636 29.612 131.356 29.18C132.076 28.748 132.886 28.532 133.786 28.532C134.686 28.532 135.496 28.748 136.216 29.18C136.936 29.612 137.494 30.2 137.89 30.944C138.298 31.688 138.502 32.51 138.502 33.41C138.502 34.31 138.298 35.132 137.89 35.876C137.494 36.62 136.936 37.208 136.216 37.64C135.496 38.072 134.686 38.288 133.786 38.288ZM133.786 36.902C134.35 36.902 134.872 36.764 135.352 36.488C135.844 36.2 136.234 35.792 136.522 35.264C136.822 34.736 136.972 34.118 136.972 33.41C136.972 32.702 136.822 32.084 136.522 31.556C136.234 31.028 135.844 30.626 135.352 30.35C134.872 30.062 134.35 29.918 133.786 29.918C133.222 29.918 132.694 30.062 132.202 30.35C131.71 30.626 131.314 31.028 131.014 31.556C130.726 32.084 130.582 32.702 130.582 33.41C130.582 34.118 130.726 34.736 131.014 35.264C131.314 35.792 131.71 36.2 132.202 36.488C132.694 36.764 133.222 36.902 133.786 36.902ZM140.103 28.82H141.561V30.17H141.633C141.885 29.714 142.287 29.33 142.839 29.018C143.391 28.694 143.979 28.532 144.603 28.532C145.707 28.532 146.547 28.856 147.123 29.504C147.711 30.14 148.005 31.01 148.005 32.114V38H146.475V32.348C146.475 31.496 146.271 30.878 145.863 30.494C145.455 30.11 144.897 29.918 144.189 29.918C143.697 29.918 143.253 30.056 142.857 30.332C142.473 30.608 142.173 30.974 141.957 31.43C141.741 31.874 141.633 32.342 141.633 32.834V38H140.103V28.82ZM154.279 38.288C153.403 38.288 152.617 38.078 151.921 37.658C151.225 37.238 150.679 36.662 150.283 35.93C149.899 35.186 149.707 34.352 149.707 33.428C149.707 32.54 149.887 31.724 150.247 30.98C150.619 30.236 151.141 29.642 151.813 29.198C152.485 28.754 153.265 28.532 154.153 28.532C155.053 28.532 155.833 28.736 156.493 29.144C157.153 29.54 157.657 30.092 158.005 30.8C158.365 31.508 158.545 32.318 158.545 33.23C158.545 33.41 158.527 33.566 158.491 33.698H151.237C151.273 34.394 151.441 34.982 151.741 35.462C152.041 35.942 152.419 36.302 152.875 36.542C153.343 36.782 153.829 36.902 154.333 36.902C155.509 36.902 156.415 36.35 157.051 35.246L158.347 35.876C157.951 36.62 157.411 37.208 156.727 37.64C156.055 38.072 155.239 38.288 154.279 38.288ZM156.925 32.438C156.901 32.054 156.793 31.67 156.601 31.286C156.409 30.902 156.103 30.578 155.683 30.314C155.275 30.05 154.759 29.918 154.135 29.918C153.415 29.918 152.803 30.152 152.299 30.62C151.807 31.076 151.483 31.682 151.327 32.438H156.925ZM159.779 36.686L165.197 30.206H159.941V28.82H167.069V30.134L161.633 36.614H167.213V38H159.779V36.686ZM169.195 25.112H170.725V28.91L170.653 30.17H170.725C170.977 29.702 171.373 29.312 171.913 29C172.465 28.688 173.065 28.532 173.713 28.532C174.829 28.532 175.681 28.862 176.269 29.522C176.857 30.17 177.151 31.034 177.151 32.114V38H175.621V32.348C175.621 31.52 175.411 30.908 174.991 30.512C174.571 30.116 174.025 29.918 173.353 29.918C172.873 29.918 172.429 30.062 172.021 30.35C171.625 30.638 171.307 31.01 171.067 31.466C170.839 31.922 170.725 32.396 170.725 32.888V38H169.195V25.112ZM183.214 36.47C183.586 36.098 184.324 35.354 185.428 34.238C186.532 33.11 187.3 32.312 187.732 31.844C188.344 31.184 188.758 30.668 188.974 30.296C189.19 29.924 189.298 29.474 189.298 28.946C189.298 28.586 189.202 28.25 189.01 27.938C188.83 27.614 188.56 27.356 188.2 27.164C187.852 26.96 187.432 26.858 186.94 26.858C186.292 26.858 185.77 27.05 185.374 27.434C184.99 27.806 184.738 28.214 184.618 28.658L183.214 28.1C183.334 27.716 183.55 27.32 183.862 26.912C184.174 26.492 184.594 26.138 185.122 25.85C185.65 25.55 186.274 25.4 186.994 25.4C187.75 25.4 188.416 25.562 188.992 25.886C189.58 26.21 190.036 26.642 190.36 27.182C190.684 27.722 190.846 28.304 190.846 28.928C190.846 30.188 190.186 31.49 188.866 32.834L185.176 36.542H190.99V38H183.214V36.47ZM197.657 38.288C196.685 38.288 195.821 38.006 195.065 37.442C194.321 36.866 193.745 36.092 193.337 35.12C192.941 34.136 192.743 33.044 192.743 31.844C192.743 30.644 192.941 29.558 193.337 28.586C193.745 27.602 194.321 26.828 195.065 26.264C195.809 25.688 196.673 25.4 197.657 25.4C198.641 25.4 199.505 25.688 200.249 26.264C200.993 26.828 201.563 27.602 201.959 28.586C202.367 29.558 202.571 30.644 202.571 31.844C202.571 33.044 202.367 34.136 201.959 35.12C201.563 36.092 200.987 36.866 200.231 37.442C199.487 38.006 198.629 38.288 197.657 38.288ZM197.657 36.83C198.341 36.83 198.935 36.614 199.439 36.182C199.943 35.738 200.333 35.138 200.609 34.382C200.885 33.626 201.023 32.78 201.023 31.844C201.023 30.908 200.885 30.062 200.609 29.306C200.333 28.55 199.943 27.956 199.439 27.524C198.935 27.08 198.341 26.858 197.657 26.858C196.973 26.858 196.379 27.08 195.875 27.524C195.371 27.956 194.981 28.55 194.705 29.306C194.429 30.062 194.291 30.908 194.291 31.844C194.291 32.78 194.429 33.626 194.705 34.382C194.981 35.138 195.371 35.738 195.875 36.182C196.379 36.614 196.973 36.83 197.657 36.83ZM207.049 27.83L204.889 29.378L204.097 28.208L207.607 25.688H208.579V38H207.049V27.83ZM213.329 37.442L216.425 33.104L216.389 33.068C215.969 33.356 215.435 33.5 214.787 33.5C214.163 33.5 213.551 33.326 212.951 32.978C212.351 32.63 211.865 32.156 211.493 31.556C211.121 30.944 210.935 30.266 210.935 29.522C210.935 28.802 211.121 28.13 211.493 27.506C211.877 26.87 212.387 26.36 213.023 25.976C213.671 25.592 214.373 25.4 215.129 25.4C215.945 25.4 216.671 25.598 217.307 25.994C217.955 26.39 218.453 26.906 218.801 27.542C219.161 28.166 219.341 28.826 219.341 29.522C219.341 30.182 219.203 30.818 218.927 31.43C218.663 32.03 218.279 32.702 217.775 33.446L214.553 38.288L213.329 37.442ZM215.129 32.132C215.609 32.132 216.053 32.018 216.461 31.79C216.881 31.55 217.211 31.232 217.451 30.836C217.691 30.428 217.811 29.984 217.811 29.504C217.811 29.012 217.691 28.568 217.451 28.172C217.211 27.764 216.881 27.446 216.461 27.218C216.053 26.978 215.609 26.858 215.129 26.858C214.649 26.858 214.205 26.978 213.797 27.218C213.389 27.446 213.065 27.764 212.825 28.172C212.585 28.568 212.465 29.012 212.465 29.504C212.465 29.984 212.585 30.428 212.825 30.836C213.065 31.232 213.389 31.55 213.797 31.79C214.205 32.018 214.649 32.132 215.129 32.132Z" fill="#676C72"/>
<path d="M11.9514 32.2261L19.4213 27.8924C21.1793 26.8726 21.7816 24.6137 20.7667 22.8473C19.7516 21.0809 17.504 20.4754 15.7459 21.4955L2.83826 28.9839L11.9514 32.2261Z" fill="#EA4335"/>
<path d="M17.5802 43.3644C18.8506 43.3644 20.0858 42.7019 20.7667 41.5171C21.7817 39.7507 21.1794 37.4918 19.4214 36.472L6.5138 28.9838C4.75572 27.9634 2.50803 28.5693 1.49307 30.3357C0.478059 32.1023 1.0804 34.361 2.83835 35.3808L15.746 42.8689C16.3247 43.2048 16.9567 43.3644 17.5802 43.3644Z" fill="#4285F4"/>
<path d="M30.4197 43.3645C31.0433 43.3645 31.6751 43.2049 32.254 42.869L45.1615 35.3808L36.1641 32.0713L28.5785 36.4721C26.8205 37.4919 26.2182 39.7508 27.2332 41.5172C27.914 42.7019 29.1494 43.3645 30.4197 43.3645Z" fill="#FBBC04"/>
<path d="M43.3206 35.8762C44.5909 35.8762 45.8262 35.214 46.5071 34.029C47.522 32.2626 46.9197 30.0038 45.1617 28.9838L32.2543 21.4954C30.4963 20.4756 28.2486 21.0806 27.2335 22.8472C26.2186 24.6136 26.8209 26.8723 28.5789 27.8924L41.4863 35.3808C42.0651 35.7164 42.6971 35.8762 43.3206 35.8762Z" fill="#0F9D58"/>
</svg>
