<?xml version="1.0" encoding="UTF-8" standalone="no"?><!-- Generator: Gravit.io --><svg xmlns="http://www.w3.org/2000/svg" xmlns:xlink="http://www.w3.org/1999/xlink" style="isolation:isolate" viewBox="0 0 221 188" width="221pt" height="188pt"><defs><clipPath id="_clipPath_Y1Bfa3ameSBlyO8uDYV9iPBNwB7oUN16"><rect width="221" height="188"/></clipPath></defs><g clip-path="url(#_clipPath_Y1Bfa3ameSBlyO8uDYV9iPBNwB7oUN16)"><path d=" M 19.547 98.22 L 6.551 90.854 C 5.969 90.523 5.332 90.366 4.705 90.366 C 3.426 90.366 2.182 91.018 1.496 92.184 C 0.475 93.921 1.081 96.143 2.851 97.146 L 15.846 104.513 C 16.429 104.843 17.065 105 17.693 105 C 18.972 105 20.216 104.348 20.901 103.183 C 21.923 101.445 21.317 99.223 19.547 98.22 Z " fill="rgb(103,108,114)"/><path d=" M 45.462 90.854 L 32.467 83.487 C 31.884 83.157 31.248 83 30.62 83 C 29.341 83 28.097 83.651 27.412 84.817 C 26.39 86.555 26.997 88.777 28.766 89.78 L 41.762 97.146 C 42.344 97.477 42.981 97.634 43.608 97.634 C 44.888 97.634 46.131 96.982 46.817 95.817 C 47.839 94.079 47.232 91.857 45.462 90.854 Z " fill="rgb(103,108,114)"/><path d=" M 41.247 98.021 L 35.182 94.583 L 28.766 98.22 C 26.997 99.223 26.39 101.445 27.412 103.183 C 28.097 104.348 29.341 105 30.62 105 C 31.248 105 31.884 104.843 32.467 104.513 L 42.913 98.591 C 42.329 98.505 41.763 98.314 41.247 98.021 Z " fill="rgb(103,108,114)"/><path d=" M 7.066 89.979 L 13.131 93.417 L 19.547 89.78 C 21.317 88.777 21.923 86.555 20.901 84.817 C 19.879 83.08 17.616 82.484 15.846 83.487 L 5.4 89.409 C 5.984 89.495 6.55 89.686 7.066 89.979 Z " fill="rgb(103,108,114)"/><path d=" M 63.488 101.288 C 62.276 101.288 61.16 100.994 60.14 100.406 C 59.12 99.818 58.31 99.008 57.71 97.976 C 57.11 96.944 56.81 95.804 56.81 94.556 C 56.81 93.308 57.11 92.168 57.71 91.136 C 58.31 90.104 59.12 89.294 60.14 88.706 C 61.16 88.118 62.276 87.824 63.488 87.824 C 64.436 87.824 65.324 87.992 66.152 88.328 C 66.992 88.664 67.682 89.138 68.222 89.75 L 67.124 90.848 C 66.716 90.344 66.194 89.96 65.558 89.696 C 64.922 89.42 64.238 89.282 63.506 89.282 C 62.594 89.282 61.742 89.504 60.95 89.948 C 60.17 90.38 59.54 90.998 59.06 91.802 C 58.592 92.594 58.358 93.512 58.358 94.556 C 58.358 95.6 58.592 96.524 59.06 97.328 C 59.54 98.12 60.176 98.738 60.968 99.182 C 61.76 99.614 62.606 99.83 63.506 99.83 C 64.37 99.83 65.09 99.698 65.666 99.434 C 66.254 99.158 66.758 98.798 67.178 98.354 C 67.49 98.018 67.742 97.616 67.934 97.148 C 68.126 96.668 68.246 96.14 68.294 95.564 L 63.524 95.564 L 63.524 94.142 L 69.716 94.142 C 69.776 94.478 69.806 94.79 69.806 95.078 C 69.806 95.87 69.68 96.644 69.428 97.4 C 69.176 98.144 68.774 98.798 68.222 99.362 C 67.034 100.646 65.456 101.288 63.488 101.288 Z  M 72.083 88.112 L 75.971 88.112 C 77.291 88.112 78.443 88.388 79.427 88.94 C 80.411 89.48 81.167 90.236 81.695 91.208 C 82.223 92.18 82.487 93.296 82.487 94.556 C 82.487 95.816 82.223 96.932 81.695 97.904 C 81.167 98.876 80.411 99.638 79.427 100.19 C 78.443 100.73 77.291 101 75.971 101 L 72.083 101 L 72.083 88.112 Z  M 75.971 99.542 C 77.495 99.542 78.701 99.104 79.589 98.228 C 80.489 97.352 80.939 96.128 80.939 94.556 C 80.939 92.984 80.489 91.76 79.589 90.884 C 78.701 90.008 77.495 89.57 75.971 89.57 L 73.595 89.57 L 73.595 99.542 L 75.971 99.542 Z  M 90.787 101.288 C 89.575 101.288 88.459 100.994 87.439 100.406 C 86.419 99.818 85.609 99.008 85.009 97.976 C 84.409 96.944 84.109 95.804 84.109 94.556 C 84.109 93.308 84.409 92.168 85.009 91.136 C 85.609 90.104 86.419 89.294 87.439 88.706 C 88.459 88.118 89.575 87.824 90.787 87.824 C 91.735 87.824 92.623 87.992 93.451 88.328 C 94.291 88.664 94.981 89.138 95.521 89.75 L 94.423 90.848 C 94.015 90.344 93.493 89.96 92.857 89.696 C 92.221 89.42 91.537 89.282 90.805 89.282 C 89.893 89.282 89.041 89.504 88.249 89.948 C 87.469 90.38 86.839 90.998 86.359 91.802 C 85.891 92.594 85.657 93.512 85.657 94.556 C 85.657 95.6 85.891 96.524 86.359 97.328 C 86.839 98.12 87.475 98.738 88.267 99.182 C 89.059 99.614 89.905 99.83 90.805 99.83 C 91.669 99.83 92.389 99.698 92.965 99.434 C 93.553 99.158 94.057 98.798 94.477 98.354 C 94.789 98.018 95.041 97.616 95.233 97.148 C 95.425 96.668 95.545 96.14 95.593 95.564 L 90.823 95.564 L 90.823 94.142 L 97.015 94.142 C 97.075 94.478 97.105 94.79 97.105 95.078 C 97.105 95.87 96.979 96.644 96.727 97.4 C 96.475 98.144 96.073 98.798 95.521 99.362 C 94.333 100.646 92.755 101.288 90.787 101.288 Z  M 101.656 88.112 L 103.348 88.112 L 106.534 97.454 L 106.966 98.732 L 107.038 98.732 L 107.488 97.454 L 110.818 88.112 L 112.51 88.112 L 107.794 101 L 106.21 101 L 101.656 88.112 Z  M 117.034 101.288 C 116.134 101.288 115.324 101.072 114.604 100.64 C 113.884 100.208 113.32 99.62 112.912 98.876 C 112.516 98.132 112.318 97.31 112.318 96.41 C 112.318 95.51 112.516 94.688 112.912 93.944 C 113.32 93.2 113.884 92.612 114.604 92.18 C 115.324 91.748 116.134 91.532 117.034 91.532 C 117.934 91.532 118.744 91.748 119.464 92.18 C 120.184 92.612 120.742 93.2 121.138 93.944 C 121.546 94.688 121.75 95.51 121.75 96.41 C 121.75 97.31 121.546 98.132 121.138 98.876 C 120.742 99.62 120.184 100.208 119.464 100.64 C 118.744 101.072 117.934 101.288 117.034 101.288 Z  M 117.034 99.902 C 117.598 99.902 118.12 99.764 118.6 99.488 C 119.092 99.2 119.482 98.792 119.77 98.264 C 120.07 97.736 120.22 97.118 120.22 96.41 C 120.22 95.702 120.07 95.084 119.77 94.556 C 119.482 94.028 119.092 93.626 118.6 93.35 C 118.12 93.062 117.598 92.918 117.034 92.918 C 116.47 92.918 115.942 93.062 115.45 93.35 C 114.958 93.626 114.562 94.028 114.262 94.556 C 113.974 95.084 113.83 95.702 113.83 96.41 C 113.83 97.118 113.974 97.736 114.262 98.264 C 114.562 98.792 114.958 99.2 115.45 99.488 C 115.942 99.764 116.47 99.902 117.034 99.902 Z  M 123.351 91.82 L 124.809 91.82 L 124.809 93.296 L 124.881 93.296 C 125.061 92.792 125.409 92.378 125.925 92.054 C 126.441 91.718 126.981 91.55 127.545 91.55 C 127.965 91.55 128.325 91.61 128.625 91.73 L 128.625 93.386 C 128.241 93.194 127.809 93.098 127.329 93.098 C 126.885 93.098 126.477 93.224 126.105 93.476 C 125.733 93.728 125.433 94.07 125.205 94.502 C 124.989 94.922 124.881 95.378 124.881 95.87 L 124.881 101 L 123.351 101 L 123.351 91.82 Z  M 133.786 101.288 C 132.886 101.288 132.076 101.072 131.356 100.64 C 130.636 100.208 130.072 99.62 129.664 98.876 C 129.268 98.132 129.07 97.31 129.07 96.41 C 129.07 95.51 129.268 94.688 129.664 93.944 C 130.072 93.2 130.636 92.612 131.356 92.18 C 132.076 91.748 132.886 91.532 133.786 91.532 C 134.686 91.532 135.496 91.748 136.216 92.18 C 136.936 92.612 137.494 93.2 137.89 93.944 C 138.298 94.688 138.502 95.51 138.502 96.41 C 138.502 97.31 138.298 98.132 137.89 98.876 C 137.494 99.62 136.936 100.208 136.216 100.64 C 135.496 101.072 134.686 101.288 133.786 101.288 Z  M 133.786 99.902 C 134.35 99.902 134.872 99.764 135.352 99.488 C 135.844 99.2 136.234 98.792 136.522 98.264 C 136.822 97.736 136.972 97.118 136.972 96.41 C 136.972 95.702 136.822 95.084 136.522 94.556 C 136.234 94.028 135.844 93.626 135.352 93.35 C 134.872 93.062 134.35 92.918 133.786 92.918 C 133.222 92.918 132.694 93.062 132.202 93.35 C 131.71 93.626 131.314 94.028 131.014 94.556 C 130.726 95.084 130.582 95.702 130.582 96.41 C 130.582 97.118 130.726 97.736 131.014 98.264 C 131.314 98.792 131.71 99.2 132.202 99.488 C 132.694 99.764 133.222 99.902 133.786 99.902 Z  M 140.103 91.82 L 141.561 91.82 L 141.561 93.17 L 141.633 93.17 C 141.885 92.714 142.287 92.33 142.839 92.018 C 143.391 91.694 143.979 91.532 144.603 91.532 C 145.707 91.532 146.547 91.856 147.123 92.504 C 147.711 93.14 148.005 94.01 148.005 95.114 L 148.005 101 L 146.475 101 L 146.475 95.348 C 146.475 94.496 146.271 93.878 145.863 93.494 C 145.455 93.11 144.897 92.918 144.189 92.918 C 143.697 92.918 143.253 93.056 142.857 93.332 C 142.473 93.608 142.173 93.974 141.957 94.43 C 141.741 94.874 141.633 95.342 141.633 95.834 L 141.633 101 L 140.103 101 L 140.103 91.82 Z  M 154.279 101.288 C 153.403 101.288 152.617 101.078 151.921 100.658 C 151.225 100.238 150.679 99.662 150.283 98.93 C 149.899 98.186 149.707 97.352 149.707 96.428 C 149.707 95.54 149.887 94.724 150.247 93.98 C 150.619 93.236 151.141 92.642 151.813 92.198 C 152.485 91.754 153.265 91.532 154.153 91.532 C 155.053 91.532 155.833 91.736 156.493 92.144 C 157.153 92.54 157.657 93.092 158.005 93.8 C 158.365 94.508 158.545 95.318 158.545 96.23 C 158.545 96.41 158.527 96.566 158.491 96.698 L 151.237 96.698 C 151.273 97.394 151.441 97.982 151.741 98.462 C 152.041 98.942 152.419 99.302 152.875 99.542 C 153.343 99.782 153.829 99.902 154.333 99.902 C 155.509 99.902 156.415 99.35 157.051 98.246 L 158.347 98.876 C 157.951 99.62 157.411 100.208 156.727 100.64 C 156.055 101.072 155.239 101.288 154.279 101.288 Z  M 156.925 95.438 C 156.901 95.054 156.793 94.67 156.601 94.286 C 156.409 93.902 156.103 93.578 155.683 93.314 C 155.275 93.05 154.759 92.918 154.135 92.918 C 153.415 92.918 152.803 93.152 152.299 93.62 C 151.807 94.076 151.483 94.682 151.327 95.438 L 156.925 95.438 Z  M 159.779 99.686 L 165.197 93.206 L 159.941 93.206 L 159.941 91.82 L 167.069 91.82 L 167.069 93.134 L 161.633 99.614 L 167.213 99.614 L 167.213 101 L 159.779 101 L 159.779 99.686 Z  M 169.195 88.112 L 170.725 88.112 L 170.725 91.91 L 170.653 93.17 L 170.725 93.17 C 170.977 92.702 171.373 92.312 171.913 92 C 172.465 91.688 173.065 91.532 173.713 91.532 C 174.829 91.532 175.681 91.862 176.269 92.522 C 176.857 93.17 177.151 94.034 177.151 95.114 L 177.151 101 L 175.621 101 L 175.621 95.348 C 175.621 94.52 175.411 93.908 174.991 93.512 C 174.571 93.116 174.025 92.918 173.353 92.918 C 172.873 92.918 172.429 93.062 172.021 93.35 C 171.625 93.638 171.307 94.01 171.067 94.466 C 170.839 94.922 170.725 95.396 170.725 95.888 L 170.725 101 L 169.195 101 L 169.195 88.112 Z  M 183.214 99.47 C 183.586 99.098 184.324 98.354 185.428 97.238 C 186.532 96.11 187.3 95.312 187.732 94.844 C 188.344 94.184 188.758 93.668 188.974 93.296 C 189.19 92.924 189.298 92.474 189.298 91.946 C 189.298 91.586 189.202 91.25 189.01 90.938 C 188.83 90.614 188.56 90.356 188.2 90.164 C 187.852 89.96 187.432 89.858 186.94 89.858 C 186.292 89.858 185.77 90.05 185.374 90.434 C 184.99 90.806 184.738 91.214 184.618 91.658 L 183.214 91.1 C 183.334 90.716 183.55 90.32 183.862 89.912 C 184.174 89.492 184.594 89.138 185.122 88.85 C 185.65 88.55 186.274 88.4 186.994 88.4 C 187.75 88.4 188.416 88.562 188.992 88.886 C 189.58 89.21 190.036 89.642 190.36 90.182 C 190.684 90.722 190.846 91.304 190.846 91.928 C 190.846 93.188 190.186 94.49 188.866 95.834 L 185.176 99.542 L 190.99 99.542 L 190.99 101 L 183.214 101 L 183.214 99.47 Z  M 197.657 101.288 C 196.685 101.288 195.821 101.006 195.065 100.442 C 194.321 99.866 193.745 99.092 193.337 98.12 C 192.941 97.136 192.743 96.044 192.743 94.844 C 192.743 93.644 192.941 92.558 193.337 91.586 C 193.745 90.602 194.321 89.828 195.065 89.264 C 195.809 88.688 196.673 88.4 197.657 88.4 C 198.641 88.4 199.505 88.688 200.249 89.264 C 200.993 89.828 201.563 90.602 201.959 91.586 C 202.367 92.558 202.571 93.644 202.571 94.844 C 202.571 96.044 202.367 97.136 201.959 98.12 C 201.563 99.092 200.987 99.866 200.231 100.442 C 199.487 101.006 198.629 101.288 197.657 101.288 Z  M 197.657 99.83 C 198.341 99.83 198.935 99.614 199.439 99.182 C 199.943 98.738 200.333 98.138 200.609 97.382 C 200.885 96.626 201.023 95.78 201.023 94.844 C 201.023 93.908 200.885 93.062 200.609 92.306 C 200.333 91.55 199.943 90.956 199.439 90.524 C 198.935 90.08 198.341 89.858 197.657 89.858 C 196.973 89.858 196.379 90.08 195.875 90.524 C 195.371 90.956 194.981 91.55 194.705 92.306 C 194.429 93.062 194.291 93.908 194.291 94.844 C 194.291 95.78 194.429 96.626 194.705 97.382 C 194.981 98.138 195.371 98.738 195.875 99.182 C 196.379 99.614 196.973 99.83 197.657 99.83 Z  M 207.049 90.83 L 204.889 92.378 L 204.097 91.208 L 207.607 88.688 L 208.579 88.688 L 208.579 101 L 207.049 101 L 207.049 90.83 Z  M 213.329 100.442 L 216.425 96.104 L 216.389 96.068 C 215.969 96.356 215.435 96.5 214.787 96.5 C 214.163 96.5 213.551 96.326 212.951 95.978 C 212.351 95.63 211.865 95.156 211.493 94.556 C 211.121 93.944 210.935 93.266 210.935 92.522 C 210.935 91.802 211.121 91.13 211.493 90.506 C 211.877 89.87 212.387 89.36 213.023 88.976 C 213.671 88.592 214.373 88.4 215.129 88.4 C 215.945 88.4 216.671 88.598 217.307 88.994 C 217.955 89.39 218.453 89.906 218.801 90.542 C 219.161 91.166 219.341 91.826 219.341 92.522 C 219.341 93.182 219.203 93.818 218.927 94.43 C 218.663 95.03 218.279 95.702 217.775 96.446 L 214.553 101.288 L 213.329 100.442 Z  M 215.129 95.132 C 215.609 95.132 216.053 95.018 216.461 94.79 C 216.881 94.55 217.211 94.232 217.451 93.836 C 217.691 93.428 217.811 92.984 217.811 92.504 C 217.811 92.012 217.691 91.568 217.451 91.172 C 217.211 90.764 216.881 90.446 216.461 90.218 C 216.053 89.978 215.609 89.858 215.129 89.858 C 214.649 89.858 214.205 89.978 213.797 90.218 C 213.389 90.446 213.065 90.764 212.825 91.172 C 212.585 91.568 212.465 92.012 212.465 92.504 C 212.465 92.984 212.585 93.428 212.825 93.836 C 213.065 94.232 213.389 94.55 213.797 94.79 C 214.205 95.018 214.649 95.132 215.129 95.132 Z " fill="rgb(103,108,114)"/><path d=" M 63.488 163.288 C 62.276 163.288 61.16 162.994 60.14 162.406 C 59.12 161.818 58.31 161.008 57.71 159.976 C 57.11 158.944 56.81 157.804 56.81 156.556 C 56.81 155.308 57.11 154.168 57.71 153.136 C 58.31 152.104 59.12 151.294 60.14 150.706 C 61.16 150.118 62.276 149.824 63.488 149.824 C 64.436 149.824 65.324 149.992 66.152 150.328 C 66.992 150.664 67.682 151.138 68.222 151.75 L 67.124 152.848 C 66.716 152.344 66.194 151.96 65.558 151.696 C 64.922 151.42 64.238 151.282 63.506 151.282 C 62.594 151.282 61.742 151.504 60.95 151.948 C 60.17 152.38 59.54 152.998 59.06 153.802 C 58.592 154.594 58.358 155.512 58.358 156.556 C 58.358 157.6 58.592 158.524 59.06 159.328 C 59.54 160.12 60.176 160.738 60.968 161.182 C 61.76 161.614 62.606 161.83 63.506 161.83 C 64.37 161.83 65.09 161.698 65.666 161.434 C 66.254 161.158 66.758 160.798 67.178 160.354 C 67.49 160.018 67.742 159.616 67.934 159.148 C 68.126 158.668 68.246 158.14 68.294 157.564 L 63.524 157.564 L 63.524 156.142 L 69.716 156.142 C 69.776 156.478 69.806 156.79 69.806 157.078 C 69.806 157.87 69.68 158.644 69.428 159.4 C 69.176 160.144 68.774 160.798 68.222 161.362 C 67.034 162.646 65.456 163.288 63.488 163.288 Z  M 72.083 150.112 L 75.971 150.112 C 77.291 150.112 78.443 150.388 79.427 150.94 C 80.411 151.48 81.167 152.236 81.695 153.208 C 82.223 154.18 82.487 155.296 82.487 156.556 C 82.487 157.816 82.223 158.932 81.695 159.904 C 81.167 160.876 80.411 161.638 79.427 162.19 C 78.443 162.73 77.291 163 75.971 163 L 72.083 163 L 72.083 150.112 Z  M 75.971 161.542 C 77.495 161.542 78.701 161.104 79.589 160.228 C 80.489 159.352 80.939 158.128 80.939 156.556 C 80.939 154.984 80.489 153.76 79.589 152.884 C 78.701 152.008 77.495 151.57 75.971 151.57 L 73.595 151.57 L 73.595 161.542 L 75.971 161.542 Z  M 90.787 163.288 C 89.575 163.288 88.459 162.994 87.439 162.406 C 86.419 161.818 85.609 161.008 85.009 159.976 C 84.409 158.944 84.109 157.804 84.109 156.556 C 84.109 155.308 84.409 154.168 85.009 153.136 C 85.609 152.104 86.419 151.294 87.439 150.706 C 88.459 150.118 89.575 149.824 90.787 149.824 C 91.735 149.824 92.623 149.992 93.451 150.328 C 94.291 150.664 94.981 151.138 95.521 151.75 L 94.423 152.848 C 94.015 152.344 93.493 151.96 92.857 151.696 C 92.221 151.42 91.537 151.282 90.805 151.282 C 89.893 151.282 89.041 151.504 88.249 151.948 C 87.469 152.38 86.839 152.998 86.359 153.802 C 85.891 154.594 85.657 155.512 85.657 156.556 C 85.657 157.6 85.891 158.524 86.359 159.328 C 86.839 160.12 87.475 160.738 88.267 161.182 C 89.059 161.614 89.905 161.83 90.805 161.83 C 91.669 161.83 92.389 161.698 92.965 161.434 C 93.553 161.158 94.057 160.798 94.477 160.354 C 94.789 160.018 95.041 159.616 95.233 159.148 C 95.425 158.668 95.545 158.14 95.593 157.564 L 90.823 157.564 L 90.823 156.142 L 97.015 156.142 C 97.075 156.478 97.105 156.79 97.105 157.078 C 97.105 157.87 96.979 158.644 96.727 159.4 C 96.475 160.144 96.073 160.798 95.521 161.362 C 94.333 162.646 92.755 163.288 90.787 163.288 Z  M 101.656 150.112 L 103.348 150.112 L 106.534 159.454 L 106.966 160.732 L 107.038 160.732 L 107.488 159.454 L 110.818 150.112 L 112.51 150.112 L 107.794 163 L 106.21 163 L 101.656 150.112 Z  M 117.034 163.288 C 116.134 163.288 115.324 163.072 114.604 162.64 C 113.884 162.208 113.32 161.62 112.912 160.876 C 112.516 160.132 112.318 159.31 112.318 158.41 C 112.318 157.51 112.516 156.688 112.912 155.944 C 113.32 155.2 113.884 154.612 114.604 154.18 C 115.324 153.748 116.134 153.532 117.034 153.532 C 117.934 153.532 118.744 153.748 119.464 154.18 C 120.184 154.612 120.742 155.2 121.138 155.944 C 121.546 156.688 121.75 157.51 121.75 158.41 C 121.75 159.31 121.546 160.132 121.138 160.876 C 120.742 161.62 120.184 162.208 119.464 162.64 C 118.744 163.072 117.934 163.288 117.034 163.288 Z  M 117.034 161.902 C 117.598 161.902 118.12 161.764 118.6 161.488 C 119.092 161.2 119.482 160.792 119.77 160.264 C 120.07 159.736 120.22 159.118 120.22 158.41 C 120.22 157.702 120.07 157.084 119.77 156.556 C 119.482 156.028 119.092 155.626 118.6 155.35 C 118.12 155.062 117.598 154.918 117.034 154.918 C 116.47 154.918 115.942 155.062 115.45 155.35 C 114.958 155.626 114.562 156.028 114.262 156.556 C 113.974 157.084 113.83 157.702 113.83 158.41 C 113.83 159.118 113.974 159.736 114.262 160.264 C 114.562 160.792 114.958 161.2 115.45 161.488 C 115.942 161.764 116.47 161.902 117.034 161.902 Z  M 123.351 153.82 L 124.809 153.82 L 124.809 155.296 L 124.881 155.296 C 125.061 154.792 125.409 154.378 125.925 154.054 C 126.441 153.718 126.981 153.55 127.545 153.55 C 127.965 153.55 128.325 153.61 128.625 153.73 L 128.625 155.386 C 128.241 155.194 127.809 155.098 127.329 155.098 C 126.885 155.098 126.477 155.224 126.105 155.476 C 125.733 155.728 125.433 156.07 125.205 156.502 C 124.989 156.922 124.881 157.378 124.881 157.87 L 124.881 163 L 123.351 163 L 123.351 153.82 Z  M 133.786 163.288 C 132.886 163.288 132.076 163.072 131.356 162.64 C 130.636 162.208 130.072 161.62 129.664 160.876 C 129.268 160.132 129.07 159.31 129.07 158.41 C 129.07 157.51 129.268 156.688 129.664 155.944 C 130.072 155.2 130.636 154.612 131.356 154.18 C 132.076 153.748 132.886 153.532 133.786 153.532 C 134.686 153.532 135.496 153.748 136.216 154.18 C 136.936 154.612 137.494 155.2 137.89 155.944 C 138.298 156.688 138.502 157.51 138.502 158.41 C 138.502 159.31 138.298 160.132 137.89 160.876 C 137.494 161.62 136.936 162.208 136.216 162.64 C 135.496 163.072 134.686 163.288 133.786 163.288 Z  M 133.786 161.902 C 134.35 161.902 134.872 161.764 135.352 161.488 C 135.844 161.2 136.234 160.792 136.522 160.264 C 136.822 159.736 136.972 159.118 136.972 158.41 C 136.972 157.702 136.822 157.084 136.522 156.556 C 136.234 156.028 135.844 155.626 135.352 155.35 C 134.872 155.062 134.35 154.918 133.786 154.918 C 133.222 154.918 132.694 155.062 132.202 155.35 C 131.71 155.626 131.314 156.028 131.014 156.556 C 130.726 157.084 130.582 157.702 130.582 158.41 C 130.582 159.118 130.726 159.736 131.014 160.264 C 131.314 160.792 131.71 161.2 132.202 161.488 C 132.694 161.764 133.222 161.902 133.786 161.902 Z  M 140.103 153.82 L 141.561 153.82 L 141.561 155.17 L 141.633 155.17 C 141.885 154.714 142.287 154.33 142.839 154.018 C 143.391 153.694 143.979 153.532 144.603 153.532 C 145.707 153.532 146.547 153.856 147.123 154.504 C 147.711 155.14 148.005 156.01 148.005 157.114 L 148.005 163 L 146.475 163 L 146.475 157.348 C 146.475 156.496 146.271 155.878 145.863 155.494 C 145.455 155.11 144.897 154.918 144.189 154.918 C 143.697 154.918 143.253 155.056 142.857 155.332 C 142.473 155.608 142.173 155.974 141.957 156.43 C 141.741 156.874 141.633 157.342 141.633 157.834 L 141.633 163 L 140.103 163 L 140.103 153.82 Z  M 154.279 163.288 C 153.403 163.288 152.617 163.078 151.921 162.658 C 151.225 162.238 150.679 161.662 150.283 160.93 C 149.899 160.186 149.707 159.352 149.707 158.428 C 149.707 157.54 149.887 156.724 150.247 155.98 C 150.619 155.236 151.141 154.642 151.813 154.198 C 152.485 153.754 153.265 153.532 154.153 153.532 C 155.053 153.532 155.833 153.736 156.493 154.144 C 157.153 154.54 157.657 155.092 158.005 155.8 C 158.365 156.508 158.545 157.318 158.545 158.23 C 158.545 158.41 158.527 158.566 158.491 158.698 L 151.237 158.698 C 151.273 159.394 151.441 159.982 151.741 160.462 C 152.041 160.942 152.419 161.302 152.875 161.542 C 153.343 161.782 153.829 161.902 154.333 161.902 C 155.509 161.902 156.415 161.35 157.051 160.246 L 158.347 160.876 C 157.951 161.62 157.411 162.208 156.727 162.64 C 156.055 163.072 155.239 163.288 154.279 163.288 Z  M 156.925 157.438 C 156.901 157.054 156.793 156.67 156.601 156.286 C 156.409 155.902 156.103 155.578 155.683 155.314 C 155.275 155.05 154.759 154.918 154.135 154.918 C 153.415 154.918 152.803 155.152 152.299 155.62 C 151.807 156.076 151.483 156.682 151.327 157.438 L 156.925 157.438 Z  M 159.779 161.686 L 165.197 155.206 L 159.941 155.206 L 159.941 153.82 L 167.069 153.82 L 167.069 155.134 L 161.633 161.614 L 167.213 161.614 L 167.213 163 L 159.779 163 L 159.779 161.686 Z  M 169.195 150.112 L 170.725 150.112 L 170.725 153.91 L 170.653 155.17 L 170.725 155.17 C 170.977 154.702 171.373 154.312 171.913 154 C 172.465 153.688 173.065 153.532 173.713 153.532 C 174.829 153.532 175.681 153.862 176.269 154.522 C 176.857 155.17 177.151 156.034 177.151 157.114 L 177.151 163 L 175.621 163 L 175.621 157.348 C 175.621 156.52 175.411 155.908 174.991 155.512 C 174.571 155.116 174.025 154.918 173.353 154.918 C 172.873 154.918 172.429 155.062 172.021 155.35 C 171.625 155.638 171.307 156.01 171.067 156.466 C 170.839 156.922 170.725 157.396 170.725 157.888 L 170.725 163 L 169.195 163 L 169.195 150.112 Z  M 183.214 161.47 C 183.586 161.098 184.324 160.354 185.428 159.238 C 186.532 158.11 187.3 157.312 187.732 156.844 C 188.344 156.184 188.758 155.668 188.974 155.296 C 189.19 154.924 189.298 154.474 189.298 153.946 C 189.298 153.586 189.202 153.25 189.01 152.938 C 188.83 152.614 188.56 152.356 188.2 152.164 C 187.852 151.96 187.432 151.858 186.94 151.858 C 186.292 151.858 185.77 152.05 185.374 152.434 C 184.99 152.806 184.738 153.214 184.618 153.658 L 183.214 153.1 C 183.334 152.716 183.55 152.32 183.862 151.912 C 184.174 151.492 184.594 151.138 185.122 150.85 C 185.65 150.55 186.274 150.4 186.994 150.4 C 187.75 150.4 188.416 150.562 188.992 150.886 C 189.58 151.21 190.036 151.642 190.36 152.182 C 190.684 152.722 190.846 153.304 190.846 153.928 C 190.846 155.188 190.186 156.49 188.866 157.834 L 185.176 161.542 L 190.99 161.542 L 190.99 163 L 183.214 163 L 183.214 161.47 Z  M 197.657 163.288 C 196.685 163.288 195.821 163.006 195.065 162.442 C 194.321 161.866 193.745 161.092 193.337 160.12 C 192.941 159.136 192.743 158.044 192.743 156.844 C 192.743 155.644 192.941 154.558 193.337 153.586 C 193.745 152.602 194.321 151.828 195.065 151.264 C 195.809 150.688 196.673 150.4 197.657 150.4 C 198.641 150.4 199.505 150.688 200.249 151.264 C 200.993 151.828 201.563 152.602 201.959 153.586 C 202.367 154.558 202.571 155.644 202.571 156.844 C 202.571 158.044 202.367 159.136 201.959 160.12 C 201.563 161.092 200.987 161.866 200.231 162.442 C 199.487 163.006 198.629 163.288 197.657 163.288 Z  M 197.657 161.83 C 198.341 161.83 198.935 161.614 199.439 161.182 C 199.943 160.738 200.333 160.138 200.609 159.382 C 200.885 158.626 201.023 157.78 201.023 156.844 C 201.023 155.908 200.885 155.062 200.609 154.306 C 200.333 153.55 199.943 152.956 199.439 152.524 C 198.935 152.08 198.341 151.858 197.657 151.858 C 196.973 151.858 196.379 152.08 195.875 152.524 C 195.371 152.956 194.981 153.55 194.705 154.306 C 194.429 155.062 194.291 155.908 194.291 156.844 C 194.291 157.78 194.429 158.626 194.705 159.382 C 194.981 160.138 195.371 160.738 195.875 161.182 C 196.379 161.614 196.973 161.83 197.657 161.83 Z  M 207.049 152.83 L 204.889 154.378 L 204.097 153.208 L 207.607 150.688 L 208.579 150.688 L 208.579 163 L 207.049 163 L 207.049 152.83 Z  M 213.329 162.442 L 216.425 158.104 L 216.389 158.068 C 215.969 158.356 215.435 158.5 214.787 158.5 C 214.163 158.5 213.551 158.326 212.951 157.978 C 212.351 157.63 211.865 157.156 211.493 156.556 C 211.121 155.944 210.935 155.266 210.935 154.522 C 210.935 153.802 211.121 153.13 211.493 152.506 C 211.877 151.87 212.387 151.36 213.023 150.976 C 213.671 150.592 214.373 150.4 215.129 150.4 C 215.945 150.4 216.671 150.598 217.307 150.994 C 217.955 151.39 218.453 151.906 218.801 152.542 C 219.161 153.166 219.341 153.826 219.341 154.522 C 219.341 155.182 219.203 155.818 218.927 156.43 C 218.663 157.03 218.279 157.702 217.775 158.446 L 214.553 163.288 L 213.329 162.442 Z  M 215.129 157.132 C 215.609 157.132 216.053 157.018 216.461 156.79 C 216.881 156.55 217.211 156.232 217.451 155.836 C 217.691 155.428 217.811 154.984 217.811 154.504 C 217.811 154.012 217.691 153.568 217.451 153.172 C 217.211 152.764 216.881 152.446 216.461 152.218 C 216.053 151.978 215.609 151.858 215.129 151.858 C 214.649 151.858 214.205 151.978 213.797 152.218 C 213.389 152.446 213.065 152.764 212.825 153.172 C 212.585 153.568 212.465 154.012 212.465 154.504 C 212.465 154.984 212.585 155.428 212.825 155.836 C 213.065 156.232 213.389 156.55 213.797 156.79 C 214.205 157.018 214.649 157.132 215.129 157.132 Z " fill="rgb(230,230,229)"/><path d=" M 11.951 156.226 L 19.421 151.892 C 21.179 150.873 21.782 148.614 20.767 146.847 C 19.752 145.081 17.504 144.475 15.746 145.495 L 2.838 152.984 L 11.951 156.226 Z " fill="rgb(234,67,53)"/><path d=" M 17.58 167.364 C 18.851 167.364 20.086 166.702 20.767 165.517 C 21.782 163.751 21.179 161.492 19.421 160.472 L 6.514 152.984 C 4.756 151.963 2.508 152.569 1.493 154.336 C 0.478 156.102 1.08 158.361 2.838 159.381 L 15.746 166.869 C 16.325 167.205 16.957 167.364 17.58 167.364 Z " fill="rgb(66,133,244)"/><path d=" M 30.42 167.364 C 31.043 167.364 31.675 167.205 32.254 166.869 L 45.161 159.381 L 36.164 156.071 L 28.579 160.472 C 26.82 161.492 26.218 163.751 27.233 165.517 C 27.914 166.702 29.149 167.364 30.42 167.364 Z " fill="rgb(251,188,4)"/><path d=" M 43.321 159.876 C 44.591 159.876 45.826 159.214 46.507 158.029 C 47.522 156.263 46.92 154.004 45.162 152.984 L 32.254 145.495 C 30.496 144.476 28.249 145.081 27.233 146.847 C 26.219 148.614 26.821 150.872 28.579 151.892 L 41.486 159.381 C 42.065 159.716 42.697 159.876 43.321 159.876 Z " fill="rgb(15,157,88)"/><path d=" M 63.488 38.288 C 62.276 38.288 61.16 37.994 60.14 37.406 C 59.12 36.818 58.31 36.008 57.71 34.976 C 57.11 33.944 56.81 32.804 56.81 31.556 C 56.81 30.308 57.11 29.168 57.71 28.136 C 58.31 27.104 59.12 26.294 60.14 25.706 C 61.16 25.118 62.276 24.824 63.488 24.824 C 64.436 24.824 65.324 24.992 66.152 25.328 C 66.992 25.664 67.682 26.138 68.222 26.75 L 67.124 27.848 C 66.716 27.344 66.194 26.96 65.558 26.696 C 64.922 26.42 64.238 26.282 63.506 26.282 C 62.594 26.282 61.742 26.504 60.95 26.948 C 60.17 27.38 59.54 27.998 59.06 28.802 C 58.592 29.594 58.358 30.512 58.358 31.556 C 58.358 32.6 58.592 33.524 59.06 34.328 C 59.54 35.12 60.176 35.738 60.968 36.182 C 61.76 36.614 62.606 36.83 63.506 36.83 C 64.37 36.83 65.09 36.698 65.666 36.434 C 66.254 36.158 66.758 35.798 67.178 35.354 C 67.49 35.018 67.742 34.616 67.934 34.148 C 68.126 33.668 68.246 33.14 68.294 32.564 L 63.524 32.564 L 63.524 31.142 L 69.716 31.142 C 69.776 31.478 69.806 31.79 69.806 32.078 C 69.806 32.87 69.68 33.644 69.428 34.4 C 69.176 35.144 68.774 35.798 68.222 36.362 C 67.034 37.646 65.456 38.288 63.488 38.288 Z  M 72.083 25.112 L 75.971 25.112 C 77.291 25.112 78.443 25.388 79.427 25.94 C 80.411 26.48 81.167 27.236 81.695 28.208 C 82.223 29.18 82.487 30.296 82.487 31.556 C 82.487 32.816 82.223 33.932 81.695 34.904 C 81.167 35.876 80.411 36.638 79.427 37.19 C 78.443 37.73 77.291 38 75.971 38 L 72.083 38 L 72.083 25.112 Z  M 75.971 36.542 C 77.495 36.542 78.701 36.104 79.589 35.228 C 80.489 34.352 80.939 33.128 80.939 31.556 C 80.939 29.984 80.489 28.76 79.589 27.884 C 78.701 27.008 77.495 26.57 75.971 26.57 L 73.595 26.57 L 73.595 36.542 L 75.971 36.542 Z  M 90.787 38.288 C 89.575 38.288 88.459 37.994 87.439 37.406 C 86.419 36.818 85.609 36.008 85.009 34.976 C 84.409 33.944 84.109 32.804 84.109 31.556 C 84.109 30.308 84.409 29.168 85.009 28.136 C 85.609 27.104 86.419 26.294 87.439 25.706 C 88.459 25.118 89.575 24.824 90.787 24.824 C 91.735 24.824 92.623 24.992 93.451 25.328 C 94.291 25.664 94.981 26.138 95.521 26.75 L 94.423 27.848 C 94.015 27.344 93.493 26.96 92.857 26.696 C 92.221 26.42 91.537 26.282 90.805 26.282 C 89.893 26.282 89.041 26.504 88.249 26.948 C 87.469 27.38 86.839 27.998 86.359 28.802 C 85.891 29.594 85.657 30.512 85.657 31.556 C 85.657 32.6 85.891 33.524 86.359 34.328 C 86.839 35.12 87.475 35.738 88.267 36.182 C 89.059 36.614 89.905 36.83 90.805 36.83 C 91.669 36.83 92.389 36.698 92.965 36.434 C 93.553 36.158 94.057 35.798 94.477 35.354 C 94.789 35.018 95.041 34.616 95.233 34.148 C 95.425 33.668 95.545 33.14 95.593 32.564 L 90.823 32.564 L 90.823 31.142 L 97.015 31.142 C 97.075 31.478 97.105 31.79 97.105 32.078 C 97.105 32.87 96.979 33.644 96.727 34.4 C 96.475 35.144 96.073 35.798 95.521 36.362 C 94.333 37.646 92.755 38.288 90.787 38.288 Z  M 101.656 25.112 L 103.348 25.112 L 106.534 34.454 L 106.966 35.732 L 107.038 35.732 L 107.488 34.454 L 110.818 25.112 L 112.51 25.112 L 107.794 38 L 106.21 38 L 101.656 25.112 Z  M 117.034 38.288 C 116.134 38.288 115.324 38.072 114.604 37.64 C 113.884 37.208 113.32 36.62 112.912 35.876 C 112.516 35.132 112.318 34.31 112.318 33.41 C 112.318 32.51 112.516 31.688 112.912 30.944 C 113.32 30.2 113.884 29.612 114.604 29.18 C 115.324 28.748 116.134 28.532 117.034 28.532 C 117.934 28.532 118.744 28.748 119.464 29.18 C 120.184 29.612 120.742 30.2 121.138 30.944 C 121.546 31.688 121.75 32.51 121.75 33.41 C 121.75 34.31 121.546 35.132 121.138 35.876 C 120.742 36.62 120.184 37.208 119.464 37.64 C 118.744 38.072 117.934 38.288 117.034 38.288 Z  M 117.034 36.902 C 117.598 36.902 118.12 36.764 118.6 36.488 C 119.092 36.2 119.482 35.792 119.77 35.264 C 120.07 34.736 120.22 34.118 120.22 33.41 C 120.22 32.702 120.07 32.084 119.77 31.556 C 119.482 31.028 119.092 30.626 118.6 30.35 C 118.12 30.062 117.598 29.918 117.034 29.918 C 116.47 29.918 115.942 30.062 115.45 30.35 C 114.958 30.626 114.562 31.028 114.262 31.556 C 113.974 32.084 113.83 32.702 113.83 33.41 C 113.83 34.118 113.974 34.736 114.262 35.264 C 114.562 35.792 114.958 36.2 115.45 36.488 C 115.942 36.764 116.47 36.902 117.034 36.902 Z  M 123.351 28.82 L 124.809 28.82 L 124.809 30.296 L 124.881 30.296 C 125.061 29.792 125.409 29.378 125.925 29.054 C 126.441 28.718 126.981 28.55 127.545 28.55 C 127.965 28.55 128.325 28.61 128.625 28.73 L 128.625 30.386 C 128.241 30.194 127.809 30.098 127.329 30.098 C 126.885 30.098 126.477 30.224 126.105 30.476 C 125.733 30.728 125.433 31.07 125.205 31.502 C 124.989 31.922 124.881 32.378 124.881 32.87 L 124.881 38 L 123.351 38 L 123.351 28.82 Z  M 133.786 38.288 C 132.886 38.288 132.076 38.072 131.356 37.64 C 130.636 37.208 130.072 36.62 129.664 35.876 C 129.268 35.132 129.07 34.31 129.07 33.41 C 129.07 32.51 129.268 31.688 129.664 30.944 C 130.072 30.2 130.636 29.612 131.356 29.18 C 132.076 28.748 132.886 28.532 133.786 28.532 C 134.686 28.532 135.496 28.748 136.216 29.18 C 136.936 29.612 137.494 30.2 137.89 30.944 C 138.298 31.688 138.502 32.51 138.502 33.41 C 138.502 34.31 138.298 35.132 137.89 35.876 C 137.494 36.62 136.936 37.208 136.216 37.64 C 135.496 38.072 134.686 38.288 133.786 38.288 Z  M 133.786 36.902 C 134.35 36.902 134.872 36.764 135.352 36.488 C 135.844 36.2 136.234 35.792 136.522 35.264 C 136.822 34.736 136.972 34.118 136.972 33.41 C 136.972 32.702 136.822 32.084 136.522 31.556 C 136.234 31.028 135.844 30.626 135.352 30.35 C 134.872 30.062 134.35 29.918 133.786 29.918 C 133.222 29.918 132.694 30.062 132.202 30.35 C 131.71 30.626 131.314 31.028 131.014 31.556 C 130.726 32.084 130.582 32.702 130.582 33.41 C 130.582 34.118 130.726 34.736 131.014 35.264 C 131.314 35.792 131.71 36.2 132.202 36.488 C 132.694 36.764 133.222 36.902 133.786 36.902 Z  M 140.103 28.82 L 141.561 28.82 L 141.561 30.17 L 141.633 30.17 C 141.885 29.714 142.287 29.33 142.839 29.018 C 143.391 28.694 143.979 28.532 144.603 28.532 C 145.707 28.532 146.547 28.856 147.123 29.504 C 147.711 30.14 148.005 31.01 148.005 32.114 L 148.005 38 L 146.475 38 L 146.475 32.348 C 146.475 31.496 146.271 30.878 145.863 30.494 C 145.455 30.11 144.897 29.918 144.189 29.918 C 143.697 29.918 143.253 30.056 142.857 30.332 C 142.473 30.608 142.173 30.974 141.957 31.43 C 141.741 31.874 141.633 32.342 141.633 32.834 L 141.633 38 L 140.103 38 L 140.103 28.82 Z  M 154.279 38.288 C 153.403 38.288 152.617 38.078 151.921 37.658 C 151.225 37.238 150.679 36.662 150.283 35.93 C 149.899 35.186 149.707 34.352 149.707 33.428 C 149.707 32.54 149.887 31.724 150.247 30.98 C 150.619 30.236 151.141 29.642 151.813 29.198 C 152.485 28.754 153.265 28.532 154.153 28.532 C 155.053 28.532 155.833 28.736 156.493 29.144 C 157.153 29.54 157.657 30.092 158.005 30.8 C 158.365 31.508 158.545 32.318 158.545 33.23 C 158.545 33.41 158.527 33.566 158.491 33.698 L 151.237 33.698 C 151.273 34.394 151.441 34.982 151.741 35.462 C 152.041 35.942 152.419 36.302 152.875 36.542 C 153.343 36.782 153.829 36.902 154.333 36.902 C 155.509 36.902 156.415 36.35 157.051 35.246 L 158.347 35.876 C 157.951 36.62 157.411 37.208 156.727 37.64 C 156.055 38.072 155.239 38.288 154.279 38.288 Z  M 156.925 32.438 C 156.901 32.054 156.793 31.67 156.601 31.286 C 156.409 30.902 156.103 30.578 155.683 30.314 C 155.275 30.05 154.759 29.918 154.135 29.918 C 153.415 29.918 152.803 30.152 152.299 30.62 C 151.807 31.076 151.483 31.682 151.327 32.438 L 156.925 32.438 Z  M 159.779 36.686 L 165.197 30.206 L 159.941 30.206 L 159.941 28.82 L 167.069 28.82 L 167.069 30.134 L 161.633 36.614 L 167.213 36.614 L 167.213 38 L 159.779 38 L 159.779 36.686 Z  M 169.195 25.112 L 170.725 25.112 L 170.725 28.91 L 170.653 30.17 L 170.725 30.17 C 170.977 29.702 171.373 29.312 171.913 29 C 172.465 28.688 173.065 28.532 173.713 28.532 C 174.829 28.532 175.681 28.862 176.269 29.522 C 176.857 30.17 177.151 31.034 177.151 32.114 L 177.151 38 L 175.621 38 L 175.621 32.348 C 175.621 31.52 175.411 30.908 174.991 30.512 C 174.571 30.116 174.025 29.918 173.353 29.918 C 172.873 29.918 172.429 30.062 172.021 30.35 C 171.625 30.638 171.307 31.01 171.067 31.466 C 170.839 31.922 170.725 32.396 170.725 32.888 L 170.725 38 L 169.195 38 L 169.195 25.112 Z  M 183.214 36.47 C 183.586 36.098 184.324 35.354 185.428 34.238 C 186.532 33.11 187.3 32.312 187.732 31.844 C 188.344 31.184 188.758 30.668 188.974 30.296 C 189.19 29.924 189.298 29.474 189.298 28.946 C 189.298 28.586 189.202 28.25 189.01 27.938 C 188.83 27.614 188.56 27.356 188.2 27.164 C 187.852 26.96 187.432 26.858 186.94 26.858 C 186.292 26.858 185.77 27.05 185.374 27.434 C 184.99 27.806 184.738 28.214 184.618 28.658 L 183.214 28.1 C 183.334 27.716 183.55 27.32 183.862 26.912 C 184.174 26.492 184.594 26.138 185.122 25.85 C 185.65 25.55 186.274 25.4 186.994 25.4 C 187.75 25.4 188.416 25.562 188.992 25.886 C 189.58 26.21 190.036 26.642 190.36 27.182 C 190.684 27.722 190.846 28.304 190.846 28.928 C 190.846 30.188 190.186 31.49 188.866 32.834 L 185.176 36.542 L 190.99 36.542 L 190.99 38 L 183.214 38 L 183.214 36.47 Z  M 197.657 38.288 C 196.685 38.288 195.821 38.006 195.065 37.442 C 194.321 36.866 193.745 36.092 193.337 35.12 C 192.941 34.136 192.743 33.044 192.743 31.844 C 192.743 30.644 192.941 29.558 193.337 28.586 C 193.745 27.602 194.321 26.828 195.065 26.264 C 195.809 25.688 196.673 25.4 197.657 25.4 C 198.641 25.4 199.505 25.688 200.249 26.264 C 200.993 26.828 201.563 27.602 201.959 28.586 C 202.367 29.558 202.571 30.644 202.571 31.844 C 202.571 33.044 202.367 34.136 201.959 35.12 C 201.563 36.092 200.987 36.866 200.231 37.442 C 199.487 38.006 198.629 38.288 197.657 38.288 Z  M 197.657 36.83 C 198.341 36.83 198.935 36.614 199.439 36.182 C 199.943 35.738 200.333 35.138 200.609 34.382 C 200.885 33.626 201.023 32.78 201.023 31.844 C 201.023 30.908 200.885 30.062 200.609 29.306 C 200.333 28.55 199.943 27.956 199.439 27.524 C 198.935 27.08 198.341 26.858 197.657 26.858 C 196.973 26.858 196.379 27.08 195.875 27.524 C 195.371 27.956 194.981 28.55 194.705 29.306 C 194.429 30.062 194.291 30.908 194.291 31.844 C 194.291 32.78 194.429 33.626 194.705 34.382 C 194.981 35.138 195.371 35.738 195.875 36.182 C 196.379 36.614 196.973 36.83 197.657 36.83 Z  M 207.049 27.83 L 204.889 29.378 L 204.097 28.208 L 207.607 25.688 L 208.579 25.688 L 208.579 38 L 207.049 38 L 207.049 27.83 Z  M 213.329 37.442 L 216.425 33.104 L 216.389 33.068 C 215.969 33.356 215.435 33.5 214.787 33.5 C 214.163 33.5 213.551 33.326 212.951 32.978 C 212.351 32.63 211.865 32.156 211.493 31.556 C 211.121 30.944 210.935 30.266 210.935 29.522 C 210.935 28.802 211.121 28.13 211.493 27.506 C 211.877 26.87 212.387 26.36 213.023 25.976 C 213.671 25.592 214.373 25.4 215.129 25.4 C 215.945 25.4 216.671 25.598 217.307 25.994 C 217.955 26.39 218.453 26.906 218.801 27.542 C 219.161 28.166 219.341 28.826 219.341 29.522 C 219.341 30.182 219.203 30.818 218.927 31.43 C 218.663 32.03 218.279 32.702 217.775 33.446 L 214.553 38.288 L 213.329 37.442 Z  M 215.129 32.132 C 215.609 32.132 216.053 32.018 216.461 31.79 C 216.881 31.55 217.211 31.232 217.451 30.836 C 217.691 30.428 217.811 29.984 217.811 29.504 C 217.811 29.012 217.691 28.568 217.451 28.172 C 217.211 27.764 216.881 27.446 216.461 27.218 C 216.053 26.978 215.609 26.858 215.129 26.858 C 214.649 26.858 214.205 26.978 213.797 27.218 C 213.389 27.446 213.065 27.764 212.825 28.172 C 212.585 28.568 212.465 29.012 212.465 29.504 C 212.465 29.984 212.585 30.428 212.825 30.836 C 213.065 31.232 213.389 31.55 213.797 31.79 C 214.205 32.018 214.649 32.132 215.129 32.132 Z " fill="rgb(103,108,114)"/><path d=" M 11.951 32.226 L 19.421 27.892 C 21.179 26.873 21.782 24.614 20.767 22.847 C 19.752 21.081 17.504 20.475 15.746 21.496 L 2.838 28.984 L 11.951 32.226 Z " fill="rgb(234,67,53)"/><path d=" M 17.58 43.364 C 18.851 43.364 20.086 42.702 20.767 41.517 C 21.782 39.751 21.179 37.492 19.421 36.472 L 6.514 28.984 C 4.756 27.963 2.508 28.569 1.493 30.336 C 0.478 32.102 1.08 34.361 2.838 35.381 L 15.746 42.869 C 16.325 43.205 16.957 43.364 17.58 43.364 Z " fill="rgb(66,133,244)"/><path d=" M 30.42 43.364 C 31.043 43.364 31.675 43.205 32.254 42.869 L 45.161 35.381 L 36.164 32.071 L 28.579 36.472 C 26.82 37.492 26.218 39.751 27.233 41.517 C 27.914 42.702 29.149 43.364 30.42 43.364 Z " fill="rgb(251,188,4)"/><path d=" M 43.321 35.876 C 44.591 35.876 45.826 35.214 46.507 34.029 C 47.522 32.263 46.92 30.004 45.162 28.984 L 32.254 21.495 C 30.496 20.476 28.249 21.081 27.233 22.847 C 26.219 24.614 26.821 26.872 28.579 27.892 L 41.486 35.381 C 42.065 35.716 42.697 35.876 43.321 35.876 Z " fill="rgb(15,157,88)"/></g></svg>